<svg xmlns="http://www.w3.org/2000/svg" width="2000" height="200" version="1.0" viewBox="0 0 1500 1500"><defs><clipPath id="a"><path d="M21.41 21.41h1457.18v1457.18H21.41Zm0 0"/></clipPath><clipPath id="b"><path d="M750 21.41C347.61 21.41 21.41 347.61 21.41 750c0 402.39 326.2 728.59 728.59 728.59 402.39 0 728.59-326.2 728.59-728.59 0-402.39-326.2-728.59-728.59-728.59"/></clipPath><clipPath id="c"><path d="M79.32 1039.094H1422V1500H79.32Zm0 0"/></clipPath><clipPath id="d"><path d="M750.75 1039.094c-370.82 0-671.43 263.492-671.43 588.523 0 325.028 300.61 588.52 671.43 588.52 370.82 0 671.43-263.492 671.43-588.52 0-325.031-300.61-588.523-671.43-588.523"/></clipPath><clipPath id="e"><path d="M180.613 1101.23H1317V1500H180.613Zm0 0"/></clipPath><clipPath id="f"><path d="M748.723 1101.23c-313.758 0-568.11 189.25-568.11 422.704 0 233.453 254.352 422.703 568.11 422.703 313.761 0 568.113-189.25 568.113-422.703 0-233.454-254.352-422.704-568.113-422.704"/></clipPath><clipPath id="g"><path d="M72.57 1174.016H1148.88V1500H72.57Zm0 0"/></clipPath><clipPath id="h"><path d="M610.71 1174.016c-297.206 0-538.14 242.074-538.14 540.687s240.934 540.692 538.14 540.692c297.204 0 538.138-242.079 538.138-540.692s-240.934-540.687-538.137-540.687"/></clipPath><clipPath id="i"><path d="M650.063 268.813h199.5v199.5h-199.5Zm0 0"/></clipPath><clipPath id="j"><path d="M755 371h86v83h-86Zm0 0"/></clipPath><clipPath id="k"><path d="m732.914 427.273 83.399-78.82 24.726 26.164-83.394 78.82Zm0 0"/></clipPath><clipPath id="l"><path d="m732.914 427.273 83.399-78.82 24.726 26.164-83.394 78.82Zm0 0"/></clipPath><clipPath id="m"><path d="M659 284h86v83h-86Zm0 0"/></clipPath><clipPath id="n"><path d="m658.941 362.918 83.395-78.82 24.73 26.164-83.398 78.82Zm0 0"/></clipPath><clipPath id="o"><path d="m767.164 310.215-83.394 78.82-24.727-26.164 83.394-78.82Zm0 0"/></clipPath><clipPath id="p"><path d="M663 373h85v84h-85Zm0 0"/></clipPath><clipPath id="q"><path d="m689.004 350.61 81.137 81.14-25.453 25.457-81.141-81.14Zm0 0"/></clipPath><clipPath id="r"><path d="m689.004 350.61 81.137 81.14-25.453 25.457-81.141-81.14Zm0 0"/></clipPath><clipPath id="s"><path d="M755 284h86v83h-86Zm0 0"/></clipPath><clipPath id="t"><path d="m757.492 284.418 83.918 78.266-24.555 26.324-83.918-78.266Zm0 0"/></clipPath><clipPath id="u"><path d="m732.914 310.77 83.918 78.265 24.555-26.328-83.918-78.266Zm0 0"/></clipPath><clipPath id="v"><path d="M674.887 639.465h148.5v148.5h-148.5Zm0 0"/></clipPath><clipPath id="w"><path d="M753 716h65v62h-65Zm0 0"/></clipPath><clipPath id="x"><path d="m736.75 757.77 62.137-58.727 18.547 19.621-62.141 58.73Zm0 0"/></clipPath><clipPath id="y"><path d="m736.75 757.77 62.137-58.727 18.547 19.621-62.141 58.73Zm0 0"/></clipPath><clipPath id="z"><path d="M682 651h64v62h-64Zm0 0"/></clipPath><clipPath id="A"><path d="m681.707 710.18 62.14-58.73 18.544 19.62-62.137 58.73Zm0 0"/></clipPath><clipPath id="B"><path d="m762.5 670.824-62.14 58.73-18.544-19.62 62.137-58.73Zm0 0"/></clipPath><clipPath id="C"><path d="M684 716h63v63h-63Zm0 0"/></clipPath><clipPath id="D"><path d="m703.395 699.79 60.457 60.456-19.09 19.09-60.457-60.457Zm0 0"/></clipPath><clipPath id="E"><path d="m703.395 699.79 60.457 60.456-19.09 19.09-60.457-60.457Zm0 0"/></clipPath><clipPath id="F"><path d="M751 651h65v61h-65Zm0 0"/></clipPath><clipPath id="G"><path d="m753.59 650.824 62.527 58.313-18.414 19.746-62.527-58.317Zm0 0"/></clipPath><clipPath id="H"><path d="m735.25 670.492 62.523 58.313 18.418-19.742-62.527-58.317Zm0 0"/></clipPath><clipPath id="I"><path d="M1092.004 855.082h108.871v108.875h-108.871Zm0 0"/></clipPath><clipPath id="J"><path d="M1149 910h48v46h-48Zm0 0"/></clipPath><clipPath id="K"><path d="m1137.305 941.727 45.777-43.266 13.469 14.25-45.778 43.266Zm0 0"/></clipPath><clipPath id="L"><path d="m1137.305 941.727 45.777-43.266 13.469 14.25-45.778 43.266Zm0 0"/></clipPath><clipPath id="M"><path d="M1096 863h48v46h-48Zm0 0"/></clipPath><clipPath id="N"><path d="m1096.45 906.324 45.777-43.265 13.464 14.246-45.777 43.27Zm0 0"/></clipPath><clipPath id="O"><path d="m1155.621 877.508-45.777 43.265-13.465-14.25 45.777-43.265Zm0 0"/></clipPath><clipPath id="P"><path d="M1099 912h47v46h-47Zm0 0"/></clipPath><clipPath id="Q"><path d="m1112.883 899.813 44.543 44.539-13.863 13.863-44.543-44.54Zm0 0"/></clipPath><clipPath id="R"><path d="m1112.883 899.813 44.543 44.539-13.863 13.863-44.543-44.54Zm0 0"/></clipPath><clipPath id="S"><path d="M1149 863h48v46h-48Zm0 0"/></clipPath><clipPath id="T"><path d="m1150.746 863.402 46.063 42.961-13.371 14.336-46.067-42.96Zm0 0"/></clipPath><clipPath id="U"><path d="m1137.305 877.813 46.066 42.96 13.371-14.34-46.066-42.96Zm0 0"/></clipPath><clipPath id="V"><path d="M299.148 855.082H408v108.875H299.148Zm0 0"/></clipPath><clipPath id="W"><path d="M356 910h48v46h-48Zm0 0"/></clipPath><clipPath id="X"><path d="m344.453 941.727 45.777-43.266 13.465 14.25-45.777 43.266Zm0 0"/></clipPath><clipPath id="Y"><path d="m344.453 941.727 45.777-43.266 13.465 14.25-45.777 43.266Zm0 0"/></clipPath><clipPath id="Z"><path d="M303 863h48v46h-48Zm0 0"/></clipPath><clipPath id="aa"><path d="m303.594 906.324 45.777-43.265 13.465 14.246-45.777 43.27Zm0 0"/></clipPath><clipPath id="ab"><path d="m362.766 877.508-45.778 43.265-13.465-14.25 45.778-43.265Zm0 0"/></clipPath><clipPath id="ac"><path d="M306 912h47v46h-47Zm0 0"/></clipPath><clipPath id="ad"><path d="m320.031 899.813 44.54 44.539-13.864 13.863-44.539-44.54Zm0 0"/></clipPath><clipPath id="ae"><path d="m320.031 899.813 44.54 44.539-13.864 13.863-44.539-44.54Zm0 0"/></clipPath><clipPath id="af"><path d="M356 863h48v46h-48Zm0 0"/></clipPath><clipPath id="ag"><path d="m357.89 863.402 46.063 42.961-13.371 14.336-46.062-42.96Zm0 0"/></clipPath><clipPath id="ah"><path d="m344.453 877.813 46.063 42.96 13.37-14.34-46.062-42.96Zm0 0"/></clipPath><clipPath id="ai"><path d="M573.66 874.742h69.082v69.086H573.66Zm0 0"/></clipPath><clipPath id="aj"><path d="M610 910h30v29h-30Zm0 0"/></clipPath><clipPath id="ak"><path d="m602.406 929.723 29.047-27.453 8.547 9.039-29.05 27.457Zm0 0"/></clipPath><clipPath id="al"><path d="m602.406 929.723 29.047-27.453 8.547 9.039-29.05 27.457Zm0 0"/></clipPath><clipPath id="am"><path d="M576 880h31v29h-31Zm0 0"/></clipPath><clipPath id="an"><path d="m576.48 907.258 29.047-27.453 8.543 9.039-29.047 27.457Zm0 0"/></clipPath><clipPath id="ao"><path d="m614.027 888.973-29.047 27.453-8.546-9.04 29.046-27.456Zm0 0"/></clipPath><clipPath id="ap"><path d="M578 910h30v31h-30Zm0 0"/></clipPath><clipPath id="aq"><path d="m586.91 903.125 28.262 28.262-8.797 8.797-28.262-28.262Zm0 0"/></clipPath><clipPath id="ar"><path d="m586.91 903.125 28.262 28.262-8.797 8.797-28.262-28.262Zm0 0"/></clipPath><clipPath id="as"><path d="M610 880h30v29h-30Zm0 0"/></clipPath><clipPath id="at"><path d="m610.934 880.023 29.226 27.258-8.484 9.098-29.227-27.258Zm0 0"/></clipPath><clipPath id="au"><path d="m602.406 889.164 29.227 27.262 8.488-9.098-29.23-27.262Zm0 0"/></clipPath><clipPath id="av"><path d="M856.977 874.742h69.082v69.086h-69.082Zm0 0"/></clipPath><clipPath id="aw"><path d="M893 910h31v29h-31Zm0 0"/></clipPath><clipPath id="ax"><path d="m885.723 929.723 29.047-27.453 8.543 9.039-29.047 27.457Zm0 0"/></clipPath><clipPath id="ay"><path d="m885.723 929.723 29.047-27.453 8.543 9.039-29.047 27.457Zm0 0"/></clipPath><clipPath id="az"><path d="M859 880h31v29h-31Zm0 0"/></clipPath><clipPath id="aA"><path d="m859.797 907.258 29.047-27.453 8.543 9.039L868.34 916.3Zm0 0"/></clipPath><clipPath id="aB"><path d="m897.344 888.973-29.047 27.453-8.547-9.04 29.047-27.456Zm0 0"/></clipPath><clipPath id="aC"><path d="M861 910h30v31h-30Zm0 0"/></clipPath><clipPath id="aD"><path d="m870.227 903.125 28.261 28.262-8.797 8.797-28.261-28.262Zm0 0"/></clipPath><clipPath id="aE"><path d="m870.227 903.125 28.261 28.262-8.797 8.797-28.261-28.262Zm0 0"/></clipPath><clipPath id="aF"><path d="M893 880h31v29h-31Zm0 0"/></clipPath><clipPath id="aG"><path d="m894.25 880.023 29.227 27.258-8.485 9.098-29.23-27.258Zm0 0"/></clipPath><clipPath id="aH"><path d="m885.723 889.164 29.226 27.262 8.485-9.098-29.227-27.262Zm0 0"/></clipPath><clipPath id="aI"><path d="M939.262 579.754h69.086v69.086h-69.086Zm0 0"/></clipPath><clipPath id="aJ"><path d="M975 615h31v29h-31Zm0 0"/></clipPath><clipPath id="aK"><path d="m968.008 634.734 29.05-27.457 8.544 9.043-29.047 27.453Zm0 0"/></clipPath><clipPath id="aL"><path d="m968.008 634.734 29.05-27.457 8.544 9.043-29.047 27.453Zm0 0"/></clipPath><clipPath id="aM"><path d="M942 585h30v29h-30Zm0 0"/></clipPath><clipPath id="aN"><path d="m942.082 612.27 29.05-27.457 8.544 9.042-29.047 27.454Zm0 0"/></clipPath><clipPath id="aO"><path d="m979.633 593.984-29.047 27.453-8.547-9.042 29.047-27.454Zm0 0"/></clipPath><clipPath id="aP"><path d="M943 615h30v31h-30Zm0 0"/></clipPath><clipPath id="aQ"><path d="m952.512 608.137 28.261 28.261-8.796 8.797-28.262-28.261Zm0 0"/></clipPath><clipPath id="aR"><path d="m952.512 608.137 28.261 28.261-8.796 8.797-28.262-28.261Zm0 0"/></clipPath><clipPath id="aS"><path d="M975 585h31v29h-31Zm0 0"/></clipPath><clipPath id="aT"><path d="m976.535 585.031 29.23 27.262-8.484 9.098-29.23-27.262Zm0 0"/></clipPath><clipPath id="aU"><path d="m968.008 594.176 29.23 27.261 8.485-9.097-29.227-27.262Zm0 0"/></clipPath><clipPath id="aV"><path d="M491.773 579.754h69.086v69.086h-69.086Zm0 0"/></clipPath><clipPath id="aW"><path d="M528 615h30v29h-30Zm0 0"/></clipPath><clipPath id="aX"><path d="m520.52 634.734 29.046-27.457 8.547 9.043-29.047 27.453Zm0 0"/></clipPath><clipPath id="aY"><path d="m520.52 634.734 29.046-27.457 8.547 9.043-29.047 27.453Zm0 0"/></clipPath><clipPath id="aZ"><path d="M494 585h31v29h-31Zm0 0"/></clipPath><clipPath id="ba"><path d="m494.594 612.27 29.047-27.457 8.547 9.042-29.051 27.454Zm0 0"/></clipPath><clipPath id="bb"><path d="m532.14 593.984-29.046 27.453-8.547-9.042 29.05-27.454Zm0 0"/></clipPath><clipPath id="bc"><path d="M496 615h30v31h-30Zm0 0"/></clipPath><clipPath id="bd"><path d="m505.023 608.137 28.262 28.261-8.797 8.797-28.261-28.261Zm0 0"/></clipPath><clipPath id="be"><path d="m505.023 608.137 28.262 28.261-8.797 8.797-28.261-28.261Zm0 0"/></clipPath><clipPath id="bf"><path d="M528 585h31v29h-31Zm0 0"/></clipPath><clipPath id="bg"><path d="m529.047 585.031 29.23 27.262-8.488 9.098-29.226-27.262Zm0 0"/></clipPath><clipPath id="bh"><path d="m520.52 594.176 29.23 27.261 8.484-9.097-29.23-27.262Zm0 0"/></clipPath><clipPath id="bi"><path d="M0 44.598h526.55V1078H0Zm0 0"/></clipPath><clipPath id="bj"><path d="M973.34 44.598H1500V1078H973.34Zm0 0"/></clipPath></defs><g clip-path="url(#a)"><g clip-path="url(#b)"><path fill="#4a658e" d="M21.41 21.41h1457.18v1457.18H21.41Zm0 0"/></g></g><g clip-path="url(#c)"><g clip-path="url(#d)"><path fill="#dca648" d="M79.32 1039.094h1342.563v1177.043H79.32Zm0 0"/></g></g><g clip-path="url(#e)"><g clip-path="url(#f)"><path fill="#e16136" d="M180.613 1101.23h1136.54v845.489H180.612Zm0 0"/></g></g><g clip-path="url(#g)"><g clip-path="url(#h)"><path fill="#c72336" d="M72.57 1174.016H1148.88v1081.379H72.57Zm0 0"/></g></g><g clip-path="url(#i)"><path fill="#f3f5f8" d="M846.941 365.148c-63.191-17.449-76.336-30.593-93.785-93.761a3.507 3.507 0 0 0-3.39-2.575 3.507 3.507 0 0 0-3.391 2.575c-17.426 63.168-30.57 76.312-93.738 93.761a3.507 3.507 0 0 0-2.574 3.391c0 1.59 1.05 2.969 2.574 3.39 63.168 17.45 76.312 30.594 93.761 93.762a3.507 3.507 0 0 0 3.391 2.575c1.59 0 2.969-1.051 3.39-2.575 17.45-63.168 30.594-76.312 93.762-93.761a3.507 3.507 0 0 0 2.575-3.39c0-1.59-1.051-2.97-2.575-3.392Zm0 0"/></g><g clip-path="url(#j)"><g clip-path="url(#k)"><g clip-path="url(#l)"><path fill="#f3f5f8" d="M840.594 374.27a154.277 154.277 0 0 0-28.778 11.574 108.162 108.162 0 0 0-23.28 16.797 109.432 109.432 0 0 0-18.071 22.312 157.336 157.336 0 0 0-13.203 28.078 56.43 56.43 0 0 1-2.024-16.832 56.56 56.56 0 0 1 3.028-16.68 70.59 70.59 0 0 1 12.605-22.84 69.9 69.9 0 0 1 5.969-6.386 70.177 70.177 0 0 1 6.71-5.598 70.774 70.774 0 0 1 15.227-8.516 70.654 70.654 0 0 1 8.285-2.78 56.598 56.598 0 0 1 16.833-2.094 56.533 56.533 0 0 1 16.699 2.965Zm0 0"/></g></g></g><g clip-path="url(#m)"><g clip-path="url(#n)"><g clip-path="url(#o)"><path fill="#f3f5f8" d="M659.488 363.219c9.98-2.89 19.574-6.75 28.778-11.578a108.012 108.012 0 0 0 23.28-16.793 109.432 109.432 0 0 0 18.071-22.313 157.607 157.607 0 0 0 13.203-28.078 56.542 56.542 0 0 1 2.024 16.832 56.565 56.565 0 0 1-3.032 16.68 71.281 71.281 0 0 1-3.242 8.117 70.59 70.59 0 0 1-9.36 14.723 70.663 70.663 0 0 1-12.68 11.984 70.456 70.456 0 0 1-15.23 8.516 70.893 70.893 0 0 1-8.284 2.78 56.557 56.557 0 0 1-16.828 2.095 56.637 56.637 0 0 1-16.7-2.965Zm0 0"/></g></g></g><g clip-path="url(#p)"><g clip-path="url(#q)"><g clip-path="url(#r)"><path fill="#f3f5f8" d="M745.02 456.754a153.698 153.698 0 0 0-12.383-28.442 107.985 107.985 0 0 0-17.446-22.8 109.537 109.537 0 0 0-22.808-17.434 157.716 157.716 0 0 0-28.442-12.406 56.487 56.487 0 0 1 16.77-2.496 56.56 56.56 0 0 1 16.758 2.558 70.828 70.828 0 0 1 15.973 7.02 70.86 70.86 0 0 1 7.214 4.933 70.813 70.813 0 0 1 12.336 12.34 70.428 70.428 0 0 1 4.934 7.215 70.451 70.451 0 0 1 7.023 15.969 56.635 56.635 0 0 1 2.563 16.766 56.408 56.408 0 0 1-2.492 16.777Zm0 0"/></g></g></g><g clip-path="url(#s)"><g clip-path="url(#t)"><g clip-path="url(#u)"><path fill="#f3f5f8" d="M840.941 363.059a154.058 154.058 0 0 1-28.851-11.387 107.887 107.887 0 0 1-23.395-16.64 109.482 109.482 0 0 1-18.218-22.188 157.504 157.504 0 0 1-13.387-27.992 56.594 56.594 0 0 0-1.914 16.843 56.625 56.625 0 0 0 3.14 16.66 70.994 70.994 0 0 0 3.301 8.094 70.757 70.757 0 0 0 9.453 14.664 70.602 70.602 0 0 0 12.762 11.898 70.822 70.822 0 0 0 15.285 8.414 71.16 71.16 0 0 0 8.305 2.727 56.488 56.488 0 0 0 16.844 1.98 56.567 56.567 0 0 0 16.675-3.073Zm0 0"/></g></g></g><g clip-path="url(#v)"><path fill="#f3f5f8" d="M821.438 711.172c-47.04-12.985-56.825-22.77-69.813-69.793a2.612 2.612 0 0 0-2.523-1.914c-1.184 0-2.211.785-2.524 1.914-12.969 47.023-22.754 56.808-69.777 69.793a2.62 2.62 0 0 0-1.914 2.527c0 1.184.785 2.211 1.914 2.524 47.023 12.988 56.808 22.77 69.793 69.793a2.616 2.616 0 0 0 2.527 1.914c1.184 0 2.211-.782 2.524-1.914 12.988-47.024 22.77-56.805 69.793-69.793a2.608 2.608 0 0 0 1.914-2.524c0-1.183-.782-2.21-1.914-2.527Zm0 0"/></g><g clip-path="url(#w)"><g clip-path="url(#x)"><g clip-path="url(#y)"><path fill="#f3f5f8" d="M817.102 718.406a114.426 114.426 0 0 0-21.485 8.582 80.07 80.07 0 0 0-17.36 12.5 80.914 80.914 0 0 0-13.448 16.64 116.746 116.746 0 0 0-9.801 20.962 42.461 42.461 0 0 1-1.555-12.59c.113-4.273.856-8.43 2.223-12.469a51.852 51.852 0 0 1 2.406-6.058 51.927 51.927 0 0 1 3.137-5.711 52.238 52.238 0 0 1 13.27-14.207 52.636 52.636 0 0 1 11.359-6.328 52.93 52.93 0 0 1 6.187-2.059 42.045 42.045 0 0 1 12.574-1.52c4.274.125 8.438.88 12.493 2.258Zm0 0"/></g></g></g><g clip-path="url(#z)"><g clip-path="url(#A)"><g clip-path="url(#B)"><path fill="#f3f5f8" d="M682.145 710.191c7.457-2.136 14.617-5 21.484-8.582a79.955 79.955 0 0 0 17.36-12.504 81.038 81.038 0 0 0 13.452-16.636 116.908 116.908 0 0 0 9.797-20.965 42.503 42.503 0 0 1 1.555 12.594 42.154 42.154 0 0 1-2.223 12.465 52.287 52.287 0 0 1-9.363 17.05 52.679 52.679 0 0 1-9.445 8.93 52.28 52.28 0 0 1-11.364 6.324 52.229 52.229 0 0 1-6.187 2.063 42.14 42.14 0 0 1-12.574 1.52 42.442 42.442 0 0 1-12.492-2.259Zm0 0"/></g></g></g><g clip-path="url(#C)"><g clip-path="url(#D)"><g clip-path="url(#E)"><path fill="#f3f5f8" d="M745.012 779a114.651 114.651 0 0 0-9.188-21.234 79.916 79.916 0 0 0-12.984-17 80.897 80.897 0 0 0-17.012-12.977 116.895 116.895 0 0 0-21.23-9.203 42.452 42.452 0 0 1 12.543-1.91c4.273-.004 8.449.617 12.523 1.87a52.684 52.684 0 0 1 11.926 5.207 52.457 52.457 0 0 1 5.379 3.673 51.135 51.135 0 0 1 4.883 4.308 52.509 52.509 0 0 1 10.957 16.063 52.38 52.38 0 0 1 2.23 6.125 42.005 42.005 0 0 1 1.875 12.527A42.515 42.515 0 0 1 745.012 779Zm0 0"/></g></g></g><g clip-path="url(#F)"><g clip-path="url(#G)"><g clip-path="url(#H)"><path fill="#f3f5f8" d="M815.86 709.32a114.352 114.352 0 0 1-21.54-8.437 80.002 80.002 0 0 1-17.441-12.387 81.104 81.104 0 0 1-13.563-16.547c-4-6.636-7.312-13.601-9.937-20.898a42.372 42.372 0 0 0-1.469 12.601c.14 4.27.91 8.422 2.305 12.45a52.32 52.32 0 0 0 9.477 16.988 51.16 51.16 0 0 0 4.476 4.726 52.6 52.6 0 0 0 5.027 4.141 52.704 52.704 0 0 0 5.508 3.48 52.661 52.661 0 0 0 12.098 4.79 42.187 42.187 0 0 0 12.586 1.437c4.27-.156 8.43-.934 12.472-2.344Zm0 0"/></g></g></g><g clip-path="url(#I)"><path fill="#f3f5f8" d="M1199.45 907.656c-34.49-9.52-41.665-16.695-51.184-51.168a1.92 1.92 0 0 0-3.704 0c-9.507 34.473-16.68 41.649-51.156 51.168a1.917 1.917 0 0 0-1.402 1.852c0 .867.574 1.62 1.402 1.851 34.477 9.52 41.649 16.696 51.172 51.168.227.832.98 1.407 1.848 1.407.87 0 1.62-.575 1.851-1.407 9.524-34.472 16.696-41.648 51.172-51.168a1.917 1.917 0 0 0 1.403-1.851c0-.867-.575-1.621-1.403-1.852Zm0 0"/></g><g clip-path="url(#J)"><g clip-path="url(#K)"><g clip-path="url(#L)"><path fill="#f3f5f8" d="M1196.309 912.52a85.026 85.026 0 0 0-15.766 6.39 59.856 59.856 0 0 0-12.77 9.23 60.684 60.684 0 0 0-9.93 12.235 87.315 87.315 0 0 0-7.28 15.379 30.93 30.93 0 0 1-1.07-9.195c.109-3.125.671-6.164 1.695-9.125.503-1.52 1.101-3 1.792-4.446a39.527 39.527 0 0 1 2.325-4.191 39.128 39.128 0 0 1 6.102-7.379 39.324 39.324 0 0 1 7.71-5.676 38.556 38.556 0 0 1 4.32-2.086 38.72 38.72 0 0 1 4.536-1.539 30.985 30.985 0 0 1 9.207-1.18 30.86 30.86 0 0 1 9.129 1.583Zm0 0"/></g></g></g><g clip-path="url(#M)"><g clip-path="url(#N)"><g clip-path="url(#O)"><path fill="#f3f5f8" d="M1096.621 906.715a85.1 85.1 0 0 0 15.762-6.39 59.758 59.758 0 0 0 12.77-9.231 60.684 60.684 0 0 0 9.929-12.235 86.765 86.765 0 0 0 7.281-15.379 30.804 30.804 0 0 1 1.07 9.196 31.089 31.089 0 0 1-1.69 9.125c-.509 1.52-1.106 3-1.794 4.445a39.56 39.56 0 0 1-2.328 4.192 39.07 39.07 0 0 1-2.82 3.875 39.748 39.748 0 0 1-3.281 3.503 38.928 38.928 0 0 1-7.711 5.676 38.83 38.83 0 0 1-8.856 3.625 30.969 30.969 0 0 1-9.207 1.18 30.812 30.812 0 0 1-9.125-1.582Zm0 0"/></g></g></g><g clip-path="url(#P)"><g clip-path="url(#Q)"><g clip-path="url(#R)"><path fill="#f3f5f8" d="M1143.742 957.965a84.883 84.883 0 0 0-6.832-15.578 59.637 59.637 0 0 0-9.586-12.5 60.499 60.499 0 0 0-12.512-9.582 87.054 87.054 0 0 0-15.574-6.848 30.907 30.907 0 0 1 9.16-1.328c3.125.02 6.184.496 9.168 1.437a38.874 38.874 0 0 1 12.707 6.586 39.036 39.036 0 0 1 6.77 6.77 39.616 39.616 0 0 1 2.715 3.957 39.568 39.568 0 0 1 2.207 4.258 38.18 38.18 0 0 1 1.664 4.488 31.007 31.007 0 0 1 1.441 9.172 30.832 30.832 0 0 1-1.328 9.168Zm0 0"/></g></g></g><g clip-path="url(#S)"><g clip-path="url(#T)"><g clip-path="url(#U)"><path fill="#f3f5f8" d="M1196.5 906.625a84.941 84.941 0 0 1-15.805-6.285 59.821 59.821 0 0 1-12.832-9.145 60.652 60.652 0 0 1-10.011-12.172 87.176 87.176 0 0 1-7.383-15.328 30.966 30.966 0 0 0-1.008 9.203c.129 3.125.71 6.16 1.754 9.114a39.42 39.42 0 0 0 1.82 4.433 39.175 39.175 0 0 0 12.207 14.567 38.835 38.835 0 0 0 8.379 4.629c1.484.597 3 1.101 4.547 1.511a31.015 31.015 0 0 0 9.215 1.118 30.81 30.81 0 0 0 9.117-1.645Zm0 0"/></g></g></g><g clip-path="url(#V)"><path fill="#f3f5f8" d="M406.594 907.656c-34.489-9.52-41.66-16.695-51.184-51.168a1.917 1.917 0 0 0-1.851-1.406c-.868 0-1.622.578-1.848 1.406-9.512 34.473-16.684 41.649-51.156 51.168a1.916 1.916 0 0 0-1.407 1.852c0 .867.575 1.62 1.407 1.851 34.472 9.52 41.644 16.696 51.168 51.168.23.832.984 1.407 1.851 1.407s1.621-.575 1.852-1.407c9.52-34.472 16.691-41.648 51.168-51.168a1.917 1.917 0 0 0 1.402-1.851c0-.867-.574-1.621-1.402-1.852Zm0 0"/></g><g clip-path="url(#W)"><g clip-path="url(#X)"><g clip-path="url(#Y)"><path fill="#f3f5f8" d="M403.453 912.52a85.245 85.245 0 0 0-15.765 6.39 59.734 59.734 0 0 0-12.766 9.23 60.551 60.551 0 0 0-9.93 12.235 86.765 86.765 0 0 0-7.281 15.379 30.804 30.804 0 0 1-1.07-9.195 30.962 30.962 0 0 1 1.691-9.125c.508-1.52 1.106-3 1.793-4.446a39.528 39.528 0 0 1 2.324-4.191 39.128 39.128 0 0 1 6.102-7.379 38.976 38.976 0 0 1 3.683-3.074 38.955 38.955 0 0 1 8.348-4.688 38.72 38.72 0 0 1 4.535-1.539 31.01 31.01 0 0 1 9.211-1.18c3.125.067 6.164.598 9.125 1.583Zm0 0"/></g></g></g><g clip-path="url(#Z)"><g clip-path="url(#aa)"><g clip-path="url(#ab)"><path fill="#f3f5f8" d="M303.766 906.715a85.245 85.245 0 0 0 15.765-6.39 59.734 59.734 0 0 0 12.766-9.231 60.551 60.551 0 0 0 9.93-12.235 86.765 86.765 0 0 0 7.28-15.379 30.804 30.804 0 0 1 1.071 9.196 30.962 30.962 0 0 1-1.691 9.125c-.508 1.52-1.106 3-1.793 4.445a39.528 39.528 0 0 1-2.324 4.192 39.747 39.747 0 0 1-2.825 3.875 38.976 38.976 0 0 1-6.96 6.578 38.319 38.319 0 0 1-4.032 2.601 38.5 38.5 0 0 1-4.316 2.086 38.72 38.72 0 0 1-4.535 1.54 31.01 31.01 0 0 1-9.211 1.179 30.834 30.834 0 0 1-9.125-1.582Zm0 0"/></g></g></g><g clip-path="url(#ac)"><g clip-path="url(#ad)"><g clip-path="url(#ae)"><path fill="#f3f5f8" d="M350.887 957.965a85.134 85.134 0 0 0-6.828-15.578 59.655 59.655 0 0 0-9.59-12.5 60.475 60.475 0 0 0-12.508-9.582 87.09 87.09 0 0 0-15.578-6.848 30.952 30.952 0 0 1 9.164-1.328c3.121.02 6.18.496 9.168 1.437a38.818 38.818 0 0 1 8.746 3.871 38.97 38.97 0 0 1 3.957 2.715 39.036 39.036 0 0 1 13.36 19.473 31.13 31.13 0 0 1 1.437 9.172 30.706 30.706 0 0 1-1.328 9.168Zm0 0"/></g></g></g><g clip-path="url(#af)"><g clip-path="url(#ag)"><g clip-path="url(#ah)"><path fill="#f3f5f8" d="M403.645 906.625a85.049 85.049 0 0 1-15.805-6.285 59.7 59.7 0 0 1-12.828-9.145A60.388 60.388 0 0 1 365 879.023a86.63 86.63 0 0 1-7.383-15.328 30.841 30.841 0 0 0-1.012 9.203 31.17 31.17 0 0 0 1.754 9.114 39.143 39.143 0 0 0 4.176 8.61 39.171 39.171 0 0 0 9.856 10.39 38.778 38.778 0 0 0 8.375 4.629 39.248 39.248 0 0 0 4.546 1.511 31.025 31.025 0 0 0 9.22 1.118c3.124-.09 6.16-.637 9.113-1.645Zm0 0"/></g></g></g><g clip-path="url(#ai)"><path fill="#f3f5f8" d="M641.836 908.105c-21.883-6.043-26.434-10.593-32.477-32.468a1.217 1.217 0 0 0-2.347 0c-6.035 21.875-10.586 26.426-32.461 32.468a1.21 1.21 0 0 0-.89 1.172c0 .551.362 1.032.89 1.176 21.875 6.043 26.426 10.594 32.469 32.469.144.527.625.89 1.175.89a1.21 1.21 0 0 0 1.172-.89c6.043-21.875 10.594-26.426 32.469-32.469.527-.144.89-.625.89-1.176a1.21 1.21 0 0 0-.89-1.172Zm0 0"/></g><g clip-path="url(#aj)"><g clip-path="url(#ak)"><g clip-path="url(#al)"><path fill="#f3f5f8" d="M639.844 911.191a53.896 53.896 0 0 0-10.004 4.055 38.052 38.052 0 0 0-8.102 5.856 38.508 38.508 0 0 0-6.3 7.765 55.311 55.311 0 0 0-4.622 9.758 19.48 19.48 0 0 1-.675-5.836 19.673 19.673 0 0 1 1.074-5.793 24.652 24.652 0 0 1 2.613-5.476 24.603 24.603 0 0 1 3.871-4.684 24.711 24.711 0 0 1 4.895-3.602c1.777-1 3.648-1.765 5.617-2.3a19.701 19.701 0 0 1 11.633.257Zm0 0"/></g></g></g><g clip-path="url(#am)"><g clip-path="url(#an)"><g clip-path="url(#ao)"><path fill="#f3f5f8" d="M576.59 907.504a53.752 53.752 0 0 0 10-4.055 37.978 37.978 0 0 0 8.105-5.855 38.508 38.508 0 0 0 6.301-7.766 55.02 55.02 0 0 0 4.617-9.758c.524 1.91.746 3.856.68 5.836a19.673 19.673 0 0 1-1.074 5.793 24.652 24.652 0 0 1-2.614 5.477 24.603 24.603 0 0 1-3.87 4.683 24.711 24.711 0 0 1-4.895 3.602 24.598 24.598 0 0 1-5.617 2.3 19.701 19.701 0 0 1-11.633-.257Zm0 0"/></g></g></g><g clip-path="url(#ap)"><g clip-path="url(#aq)"><g clip-path="url(#ar)"><path fill="#f3f5f8" d="M606.488 940.027a54.144 54.144 0 0 0-4.332-9.886 38.117 38.117 0 0 0-6.086-7.934 38.477 38.477 0 0 0-7.937-6.078 55.093 55.093 0 0 0-9.883-4.344 19.51 19.51 0 0 1 5.813-.844c1.984.012 3.921.317 5.82.91a24.73 24.73 0 0 1 10.34 6.196 24.649 24.649 0 0 1 3.738 4.793 24.653 24.653 0 0 1 2.457 5.55 19.63 19.63 0 0 1 .914 5.82c.012 1.981-.27 3.923-.844 5.817Zm0 0"/></g></g></g><g clip-path="url(#as)"><g clip-path="url(#at)"><g clip-path="url(#au)"><path fill="#f3f5f8" d="M639.965 907.45a53.972 53.972 0 0 1-10.028-3.99 37.797 37.797 0 0 1-8.14-5.804 38.369 38.369 0 0 1-6.352-7.718 55.08 55.08 0 0 1-4.687-9.731 19.632 19.632 0 0 0-.64 5.844c.081 1.98.452 3.906 1.112 5.781.66 1.93 1.543 3.75 2.653 5.461a24.33 24.33 0 0 0 3.902 4.656 24.562 24.562 0 0 0 4.918 3.57 24.42 24.42 0 0 0 5.633 2.262c1.914.532 3.863.77 5.848.711 1.98-.054 3.91-.402 5.78-1.043Zm0 0"/></g></g></g><g clip-path="url(#av)"><path fill="#f3f5f8" d="M925.152 908.105c-21.882-6.043-26.433-10.593-32.476-32.468a1.218 1.218 0 0 0-2.348 0c-6.035 21.875-10.586 26.426-32.46 32.468a1.21 1.21 0 0 0-.891 1.172c0 .551.363 1.032.89 1.176 21.875 6.043 26.426 10.594 32.469 32.469.144.527.621.89 1.172.89.55 0 1.031-.363 1.176-.89 6.043-21.875 10.593-26.426 32.468-32.469.528-.144.891-.625.891-1.176a1.21 1.21 0 0 0-.89-1.172Zm0 0"/></g><g clip-path="url(#aw)"><g clip-path="url(#ax)"><g clip-path="url(#ay)"><path fill="#f3f5f8" d="M923.16 911.191a53.896 53.896 0 0 0-10.004 4.055 37.954 37.954 0 0 0-8.101 5.856 38.508 38.508 0 0 0-6.301 7.765 55.311 55.311 0 0 0-4.621 9.758 19.609 19.609 0 0 1-.68-5.836 19.8 19.8 0 0 1 1.074-5.793 24.652 24.652 0 0 1 2.614-5.476 24.623 24.623 0 0 1 3.875-4.684 24.686 24.686 0 0 1 4.89-3.602c1.782-1 3.653-1.765 5.621-2.3a19.692 19.692 0 0 1 11.633.257Zm0 0"/></g></g></g><g clip-path="url(#az)"><g clip-path="url(#aA)"><g clip-path="url(#aB)"><path fill="#f3f5f8" d="M859.906 907.504a53.86 53.86 0 0 0 10-4.055 37.857 37.857 0 0 0 8.102-5.855 38.375 38.375 0 0 0 6.3-7.766 54.765 54.765 0 0 0 4.622-9.758c.52 1.91.746 3.856.68 5.836a19.673 19.673 0 0 1-1.075 5.793 24.652 24.652 0 0 1-2.613 5.477 24.603 24.603 0 0 1-3.871 4.683 24.711 24.711 0 0 1-4.895 3.602 24.598 24.598 0 0 1-5.617 2.3c-1.914.544-3.86.794-5.844.75a19.548 19.548 0 0 1-5.789-1.007Zm0 0"/></g></g></g><g clip-path="url(#aC)"><g clip-path="url(#aD)"><g clip-path="url(#aE)"><path fill="#f3f5f8" d="M889.805 940.027a53.893 53.893 0 0 0-4.336-9.886 37.966 37.966 0 0 0-6.082-7.934 38.477 38.477 0 0 0-7.938-6.078 55.215 55.215 0 0 0-9.883-4.344 19.728 19.728 0 0 1 11.629.066c1.953.59 3.801 1.41 5.551 2.458a24.953 24.953 0 0 1 4.793 3.738 24.953 24.953 0 0 1 3.738 4.793 24.653 24.653 0 0 1 2.457 5.55 19.63 19.63 0 0 1 .914 5.82c.012 1.981-.27 3.923-.843 5.817Zm0 0"/></g></g></g><g clip-path="url(#aF)"><g clip-path="url(#aG)"><g clip-path="url(#aH)"><path fill="#f3f5f8" d="M923.281 907.45a53.972 53.972 0 0 1-10.027-3.99 37.797 37.797 0 0 1-8.14-5.804 38.388 38.388 0 0 1-6.356-7.718 55.336 55.336 0 0 1-4.684-9.731 19.632 19.632 0 0 0-.64 5.844c.082 1.98.453 3.906 1.113 5.781.656 1.93 1.539 3.75 2.648 5.461a24.619 24.619 0 0 0 3.903 4.656 24.786 24.786 0 0 0 4.918 3.57 24.491 24.491 0 0 0 5.632 2.262c1.918.532 3.868.77 5.852.711 1.98-.054 3.91-.402 5.781-1.043Zm0 0"/></g></g></g><g clip-path="url(#aI)"><path fill="#f3f5f8" d="M1007.441 613.113c-21.882-6.043-26.437-10.593-32.476-32.468a1.218 1.218 0 0 0-1.176-.891c-.55 0-1.027.363-1.176.89-6.031 21.876-10.582 26.426-32.46 32.47a1.219 1.219 0 0 0 0 2.347c21.878 6.043 26.429 10.594 32.472 32.469.145.527.621.894 1.172.894.55 0 1.027-.367 1.176-.894 6.043-21.875 10.593-26.426 32.468-32.47a1.21 1.21 0 0 0 .891-1.17c0-.552-.363-1.032-.89-1.177Zm0 0"/></g><g clip-path="url(#aJ)"><g clip-path="url(#aK)"><g clip-path="url(#aL)"><path fill="#f3f5f8" d="M1005.45 616.2a53.788 53.788 0 0 0-10.005 4.054 37.837 37.837 0 0 0-8.101 5.86 38.352 38.352 0 0 0-6.301 7.761 55.166 55.166 0 0 0-4.621 9.758 19.58 19.58 0 0 1-.68-5.836c.07-1.98.426-3.91 1.074-5.79a24.68 24.68 0 0 1 2.614-5.48 24.826 24.826 0 0 1 8.766-8.285 24.658 24.658 0 0 1 5.617-2.297 19.734 19.734 0 0 1 11.636.254Zm0 0"/></g></g></g><g clip-path="url(#aM)"><g clip-path="url(#aN)"><g clip-path="url(#aO)"><path fill="#f3f5f8" d="M942.191 612.516a53.788 53.788 0 0 0 10.004-4.055 37.837 37.837 0 0 0 8.102-5.86 38.352 38.352 0 0 0 6.3-7.761 55.037 55.037 0 0 0 4.622-9.758c.52 1.91.746 3.856.68 5.836a19.67 19.67 0 0 1-1.075 5.789 24.598 24.598 0 0 1-2.613 5.48 24.826 24.826 0 0 1-14.383 10.586 19.73 19.73 0 0 1-5.844.747 19.59 19.59 0 0 1-5.793-1.004Zm0 0"/></g></g></g><g clip-path="url(#aP)"><g clip-path="url(#aQ)"><g clip-path="url(#aR)"><path fill="#f3f5f8" d="M972.094 645.035a53.857 53.857 0 0 0-4.336-9.883 37.764 37.764 0 0 0-6.082-7.933 38.34 38.34 0 0 0-7.938-6.078 54.853 54.853 0 0 0-9.886-4.344 19.536 19.536 0 0 1 5.816-.844 19.62 19.62 0 0 1 5.816.91c1.953.59 3.801 1.41 5.551 2.457a24.649 24.649 0 0 1 4.793 3.739 24.73 24.73 0 0 1 6.195 10.34c.594 1.898.899 3.835.91 5.82a19.407 19.407 0 0 1-.84 5.816Zm0 0"/></g></g></g><g clip-path="url(#aS)"><g clip-path="url(#aT)"><g clip-path="url(#aU)"><path fill="#f3f5f8" d="M1005.57 612.46a54.244 54.244 0 0 1-10.027-3.987 37.97 37.97 0 0 1-8.14-5.805 38.303 38.303 0 0 1-6.356-7.723 55.168 55.168 0 0 1-4.684-9.726 19.494 19.494 0 0 0-.64 5.84c.082 1.98.453 3.91 1.113 5.78a24.742 24.742 0 0 0 6.55 10.121 24.83 24.83 0 0 0 4.919 3.571 24.846 24.846 0 0 0 5.633 2.262 19.742 19.742 0 0 0 11.632-.332Zm0 0"/></g></g></g><g clip-path="url(#aV)"><path fill="#f3f5f8" d="M559.95 613.113c-21.884-6.043-26.434-10.593-32.477-32.468a1.21 1.21 0 0 0-1.172-.891c-.551 0-1.031.363-1.176.89-6.035 21.876-10.586 26.426-32.46 32.47-.528.144-.892.624-.892 1.175 0 .55.364 1.027.891 1.172 21.875 6.043 26.426 10.594 32.469 32.469a1.218 1.218 0 0 0 2.347 0c6.043-21.875 10.594-26.426 32.47-32.47a1.21 1.21 0 0 0 .89-1.17c0-.552-.363-1.032-.89-1.177Zm0 0"/></g><g clip-path="url(#aW)"><g clip-path="url(#aX)"><g clip-path="url(#aY)"><path fill="#f3f5f8" d="M557.957 616.2a53.752 53.752 0 0 0-10 4.054 37.86 37.86 0 0 0-8.105 5.86 38.485 38.485 0 0 0-6.301 7.761 55.15 55.15 0 0 0-4.617 9.758 19.453 19.453 0 0 1-.68-5.836 19.67 19.67 0 0 1 1.074-5.79 24.68 24.68 0 0 1 2.613-5.48 24.725 24.725 0 0 1 3.871-4.683 24.711 24.711 0 0 1 10.512-5.899 19.718 19.718 0 0 1 11.633.254Zm0 0"/></g></g></g><g clip-path="url(#aZ)"><g clip-path="url(#ba)"><g clip-path="url(#bb)"><path fill="#f3f5f8" d="M494.703 612.516a53.896 53.896 0 0 0 10.004-4.055 37.934 37.934 0 0 0 8.102-5.86 38.485 38.485 0 0 0 6.3-7.761 55.311 55.311 0 0 0 4.621-9.758c.52 1.91.747 3.856.676 5.836a19.67 19.67 0 0 1-1.074 5.789 24.598 24.598 0 0 1-2.613 5.48 24.725 24.725 0 0 1-3.871 4.684 24.711 24.711 0 0 1-4.895 3.602 24.702 24.702 0 0 1-5.617 2.3c-1.91.543-3.86.79-5.844.747a19.587 19.587 0 0 1-5.789-1.004Zm0 0"/></g></g></g><g clip-path="url(#bc)"><g clip-path="url(#bd)"><g clip-path="url(#be)"><path fill="#f3f5f8" d="M524.605 645.035a54.124 54.124 0 0 0-4.335-9.883 37.913 37.913 0 0 0-6.086-7.933 38.238 38.238 0 0 0-7.938-6.078 54.817 54.817 0 0 0-9.883-4.344 19.528 19.528 0 0 1 5.813-.844c1.984.012 3.922.313 5.82.91a24.73 24.73 0 0 1 10.34 6.196 24.624 24.624 0 0 1 3.738 4.789 24.556 24.556 0 0 1 2.457 5.55 19.65 19.65 0 0 1 .914 5.82 19.659 19.659 0 0 1-.84 5.817Zm0 0"/></g></g></g><g clip-path="url(#bf)"><g clip-path="url(#bg)"><g clip-path="url(#bh)"><path fill="#f3f5f8" d="M558.078 612.46a54.244 54.244 0 0 1-10.027-3.987 38.068 38.068 0 0 1-8.14-5.805 38.415 38.415 0 0 1-6.352-7.723 54.912 54.912 0 0 1-4.688-9.726 19.618 19.618 0 0 0-.637 5.84c.078 1.98.45 3.91 1.11 5.78a24.795 24.795 0 0 0 17.105 15.954 19.71 19.71 0 0 0 11.63-.332Zm0 0"/></g></g></g><g clip-path="url(#bi)"><path fill="#2f4c79" d="M503.43 65.832s82.691 187.856-64.653 411.785C291.437 701.543 88.465 799.23 68.922 999.113c-19.547 199.883-184.93-43.582-184.93-43.582l6.012-910.742Zm0 0"/></g><path fill="#213150" d="M294.441 178.547s66.157 118.726-70.66 329.129C86.961 718.074 53.887 707.555 23.816 778.19c-30.07 70.633-221.011-39.074-221.011-39.074L172.66 157.504Zm0 0"/><g clip-path="url(#bj)"><path fill="#2f4c79" d="M996.238 65.832s-82.691 187.856 64.649 411.785c147.343 223.926 350.312 321.613 369.86 521.496 19.542 199.883 184.929-43.582 184.929-43.582L1609.66 44.79Zm0 0"/></g><path fill="#213150" d="M1205.223 178.547s-66.153 118.726 70.664 329.129c136.816 210.398 169.894 199.879 199.965 270.515 30.066 70.633 221.011-39.074 221.011-39.074l-369.86-581.613Zm0 0"/><path fill="#fff" d="M-673.32-672.043v2843.918h2843.918V-672.043ZM748.64 1490.52a741.686 741.686 0 0 1-108.671-8.016 745.485 745.485 0 0 1-35.813-6.215 742.706 742.706 0 0 1-35.468-7.965 739.018 739.018 0 0 1-35.036-9.695 744.486 744.486 0 0 1-34.515-11.402 738.987 738.987 0 0 1-67.145-27.816 741.73 741.73 0 0 1-32.472-16.34 742.72 742.72 0 0 1-31.625-17.919 735.243 735.243 0 0 1-30.711-19.449 744.566 744.566 0 0 1-29.723-20.93 746.656 746.656 0 0 1-28.656-22.363 743.214 743.214 0 0 1-53.852-48.808 741.667 741.667 0 0 1-25.066-26.329 746.836 746.836 0 0 1-23.742-27.523 739.91 739.91 0 0 1-22.364-28.66 737.652 737.652 0 0 1-20.93-29.719 740.455 740.455 0 0 1-92.926-196.469 740.311 740.311 0 0 1-17.66-70.504A739.989 739.989 0 0 1 8.93 786.254a736.842 736.842 0 0 1-.895-36.34c0-12.121.297-24.234.895-36.34A739.905 739.905 0 0 1 22.266 605.43a740.157 740.157 0 0 1 29.063-105.016 740.685 740.685 0 0 1 13.081-33.918 747.368 747.368 0 0 1 14.73-33.23 740.455 740.455 0 0 1 74.64-124.527 739.784 739.784 0 0 1 22.365-28.657 743.742 743.742 0 0 1 23.742-27.527 741.55 741.55 0 0 1 78.918-75.133 742.878 742.878 0 0 1 28.656-22.367 744.566 744.566 0 0 1 29.723-20.93 735.158 735.158 0 0 1 30.71-19.445 734.304 734.304 0 0 1 31.626-17.918 737.471 737.471 0 0 1 32.472-16.344 734.525 734.525 0 0 1 33.23-14.73c11.2-4.641 22.505-9 33.915-13.083a735.271 735.271 0 0 1 34.515-11.402 734.383 734.383 0 0 1 35.035-9.695 737.966 737.966 0 0 1 35.47-7.965 735.9 735.9 0 0 1 35.812-6.215 736.827 736.827 0 0 1 36.078-4.45 735.265 735.265 0 0 1 36.254-2.675 741.682 741.682 0 0 1 72.68 0 735.108 735.108 0 0 1 36.25 2.676 736.238 736.238 0 0 1 36.078 4.45 736.878 736.878 0 0 1 35.816 6.214 738.87 738.87 0 0 1 35.465 7.965 738.38 738.38 0 0 1 69.55 21.098 734.303 734.303 0 0 1 33.915 13.082 736.614 736.614 0 0 1 33.234 14.73 737.33 737.33 0 0 1 32.469 16.344 740.938 740.938 0 0 1 31.629 17.914 741.617 741.617 0 0 1 60.43 40.379 739.881 739.881 0 0 1 28.656 22.367 741.668 741.668 0 0 1 78.918 75.133 736.39 736.39 0 0 1 23.742 27.527 735.978 735.978 0 0 1 22.363 28.656 737.745 737.745 0 0 1 40.379 60.43 740.455 740.455 0 0 1 62.074 131.246 732.277 732.277 0 0 1 11.403 34.516 738.864 738.864 0 0 1 9.695 35.03 740.818 740.818 0 0 1 21.305 143.613c.593 12.107.89 24.22.89 36.341a737.111 737.111 0 0 1-.887 36.344 741 741 0 0 1-7.11 72.332 740.948 740.948 0 0 1-14.17 71.289 743.67 743.67 0 0 1-9.692 35.035 743.051 743.051 0 0 1-11.399 34.52 740.972 740.972 0 0 1-27.809 67.152 741.802 741.802 0 0 1-34.257 64.105 741.748 741.748 0 0 1-40.379 60.434 742.722 742.722 0 0 1-46.11 56.188 745.045 745.045 0 0 1-25.066 26.328 740.046 740.046 0 0 1-53.855 48.809 740.662 740.662 0 0 1-58.379 43.297 741.964 741.964 0 0 1-62.344 37.358 737.474 737.474 0 0 1-32.473 16.344 743.016 743.016 0 0 1-33.234 14.73 739.95 739.95 0 0 1-68.438 24.477 734.492 734.492 0 0 1-35.038 9.692 740.79 740.79 0 0 1-107.367 18.617 741.678 741.678 0 0 1-72.594 3.555Zm0 0"/><path fill="#fff" d="M2183.766 2185.04h-2870.25V-685.21h2870.25Zm-2843.918-26.333H2157.43V-658.879H-660.152ZM748.64 1503.684c-12.336 0-24.668-.301-36.989-.907a756.558 756.558 0 0 1-36.894-2.722 757.7 757.7 0 0 1-36.719-4.528 756.766 756.766 0 0 1-36.453-6.328 749.998 749.998 0 0 1-36.098-8.105 753.887 753.887 0 0 1-70.785-21.473 752.09 752.09 0 0 1-68.344-28.309 752.638 752.638 0 0 1-33.043-16.632 753.496 753.496 0 0 1-177.671-131.77 752.12 752.12 0 0 1-49.676-54.809 748.758 748.758 0 0 1-22.762-29.167 753.304 753.304 0 0 1-59.332-93.695 750.677 750.677 0 0 1-16.637-33.048 758.32 758.32 0 0 1-14.992-33.82 757.937 757.937 0 0 1-13.316-34.52 755.946 755.946 0 0 1-21.473-70.785A752.77 752.77 0 0 1-1.5 823.796a753.365 753.365 0 0 1-3.629-73.883 753.365 753.365 0 0 1 8.156-110.6 752.77 752.77 0 0 1 24.301-108.208 750.807 750.807 0 0 1 11.606-35.128 751.43 751.43 0 0 1 13.312-34.516 756.476 756.476 0 0 1 14.992-33.824 750.677 750.677 0 0 1 16.637-33.047 749.847 749.847 0 0 1 18.234-32.192 753.254 753.254 0 0 1 41.098-61.504 751.722 751.722 0 0 1 22.762-29.167 754.26 754.26 0 0 1 76.469-80.32 755.802 755.802 0 0 1 57.18-46.927 753.29 753.29 0 0 1 30.25-21.3 753.39 753.39 0 0 1 31.257-19.797 753.496 753.496 0 0 1 32.191-18.235 752.636 752.636 0 0 1 66.868-31.625 753.888 753.888 0 0 1 105.305-34.79c11.964-2.995 24-5.698 36.097-8.104a751.94 751.94 0 0 1 36.453-6.324 751.69 751.69 0 0 1 73.613-7.25c12.32-.606 24.653-.91 36.989-.91 12.336 0 24.664.304 36.984.91a751.334 751.334 0 0 1 73.613 7.25 753.658 753.658 0 0 1 211.68 64.21 750.604 750.604 0 0 1 33.047 16.633 753.39 753.39 0 0 1 63.445 38.031 753.29 753.29 0 0 1 30.25 21.301 755.426 755.426 0 0 1 57.18 46.926 754.143 754.143 0 0 1 52.305 52.309 755.786 755.786 0 0 1 24.168 28.012 753.162 753.162 0 0 1 63.855 90.672 754.136 754.136 0 0 1 18.238 32.19 754.936 754.936 0 0 1 31.625 66.872 751.487 751.487 0 0 1 13.317 34.516 755.416 755.416 0 0 1 11.605 35.128 760.646 760.646 0 0 1 9.867 35.657 752.77 752.77 0 0 1 18.957 109.27 753.369 753.369 0 0 1 3.633 73.883 758.098 758.098 0 0 1-.945 36.976 756.189 756.189 0 0 1-7.317 73.586 756.299 756.299 0 0 1-6.351 36.437 759.13 759.13 0 0 1-8.133 36.082 749.424 749.424 0 0 1-9.89 35.637 753.482 753.482 0 0 1-24.954 69.613 756.085 756.085 0 0 1-15.004 33.809 754.44 754.44 0 0 1-16.644 33.027 751.27 751.27 0 0 1-18.242 32.176 755.458 755.458 0 0 1-19.797 31.242 746.16 746.16 0 0 1-21.305 30.234 758.092 758.092 0 0 1-22.758 29.157 758.54 758.54 0 0 1-24.16 28.004 757.174 757.174 0 0 1-52.293 52.289 755.337 755.337 0 0 1-87.39 68.226 759.609 759.609 0 0 1-31.243 19.797 757.916 757.916 0 0 1-32.175 18.242 754.51 754.51 0 0 1-33.032 16.64 751.557 751.557 0 0 1-68.304 28.337 755.061 755.061 0 0 1-70.754 21.515 754.312 754.312 0 0 1-72.52 14.48 756.636 756.636 0 0 1-36.703 4.563 755.81 755.81 0 0 1-73.855 3.7Zm0-1481.207c-11.907 0-23.805.293-35.696.878a723.454 723.454 0 0 0-35.61 2.625 729.667 729.667 0 0 0-70.612 10.473A727.961 727.961 0 0 0 503.575 65a723.386 723.386 0 0 0-33.313 12.852 728.427 728.427 0 0 0-64.535 30.52 727.415 727.415 0 0 0-31.067 17.6 720.775 720.775 0 0 0-30.164 19.102 727.135 727.135 0 0 0-110.234 90.465 725.446 725.446 0 0 0-24.617 25.86A727.232 727.232 0 0 0 91.043 438.894a727.43 727.43 0 0 0 143.219 825.394 726.844 726.844 0 0 0 52.895 47.941 727.233 727.233 0 0 0 118.57 79.227 726.27 726.27 0 0 0 31.894 16.05 725.53 725.53 0 0 0 65.953 27.321 721.29 721.29 0 0 0 33.903 11.2 726.844 726.844 0 0 0 69.246 17.348 728.845 728.845 0 0 0 35.18 6.1 728.293 728.293 0 0 0 71.043 7c11.89.583 23.788.876 35.695.876 11.902 0 23.8-.293 35.691-.875a728.293 728.293 0 0 0 106.223-13.102 726.844 726.844 0 0 0 34.836-7.824 723.451 723.451 0 0 0 34.414-9.524 724.301 724.301 0 0 0 33.902-11.199 729.45 729.45 0 0 0 33.309-12.848c11-4.558 21.879-9.378 32.644-14.472a727.337 727.337 0 0 0 93.121-52.75 727.233 727.233 0 0 0 84.375-65.848 729.076 729.076 0 0 0 25.86-24.62 722.126 722.126 0 0 0 24.617-25.86 727.455 727.455 0 0 0 45.289-55.18 724.928 724.928 0 0 0 20.558-29.191 731.689 731.689 0 0 0 19.102-30.168 723.132 723.132 0 0 0 17.598-31.067 724.029 724.029 0 0 0 16.054-31.89 725.465 725.465 0 0 0 14.47-32.641c4.554-11 8.839-22.102 12.85-33.313a730.485 730.485 0 0 0 11.2-33.902 732.685 732.685 0 0 0 9.523-34.41c2.891-11.55 5.5-23.16 7.82-34.836a724.92 724.92 0 0 0 6.106-35.18 729.824 729.824 0 0 0 4.371-35.437 728.124 728.124 0 0 0 3.504-71.3 729.413 729.413 0 0 0-3.59-71.274 724.39 724.39 0 0 0-4.406-35.418 723.53 723.53 0 0 0-6.137-35.16 725.245 725.245 0 0 0-7.851-34.817 727.602 727.602 0 0 0-33.637-101.566 724.998 724.998 0 0 0-14.484-32.621 725.776 725.776 0 0 0-16.063-31.875 729.205 729.205 0 0 0-36.71-61.196 729.534 729.534 0 0 0-42.523-57.309 730.582 730.582 0 0 0-23.318-27.023 732.061 732.061 0 0 0-24.613-25.847 728.51 728.51 0 0 0-25.848-24.614 730.196 730.196 0 0 0-55.16-45.28 728.345 728.345 0 0 0-59.32-39.664 722.738 722.738 0 0 0-31.05-17.606 725.707 725.707 0 0 0-64.493-30.547 726.876 726.876 0 0 0-67.176-24.09 726.193 726.193 0 0 0-69.207-17.403 733.992 733.992 0 0 0-35.16-6.136 727.242 727.242 0 0 0-71.012-7.07 729.54 729.54 0 0 0-35.68-.922Zm0 0"/></svg>